<svg width="650" height="150" xmlns="http://www.w3.org/2000/svg" xmlns:svg="http://www.w3.org/2000/svg">
 <g>
  <title>Layer 1</title>
  <g id="svg_1">
   <polygon id="svg_2" points="150.10000610351562,74.0999984741211 147.89999389648438,71.9000015258789 112.4000015258789,36.5 112.4000015258789,45.29999923706055 141.3000030517578,74.0999984741211 79.9000015258789,135.5 66.5999984741211,122.30000305175781 66.5999984741211,63 92.5999984741211,99.19999694824219 101.80000305175781,99.19999694824219 101.80000305175781,34.70000076293945 102,34.79999923706055 102,26 79.9000015258789,3.9000000953674316 9.600000381469727,74.0999984741211 47.20000076293945,111.69999694824219 47.20000076293945,102.9000015258789 18.399999618530273,74.0999984741211 79.9000015258789,12.699999809265137 92.5999984741211,25.5 92.5999984741211,80.4000015258789 70.5,49.5 66.5999984741211,49.5 58,49.5 58,113.69999694824219 58.099998474121094,122.80000305175781 79.9000015258789,144.3000030517578 " fill="#007fff"/>
  </g>
  <text fill="#000000" stroke-width="0" stroke-dasharray="null" stroke-linejoin="null" stroke-linecap="null" x="257.54473" y="97.76878" id="svg_3" font-size="24" font-family="Sans-serif" text-anchor="middle" xml:space="preserve" font-weight="bold" transform="matrix(3.7205938940753707,0,0,4.119930905073538,-609.40719094986,-291.42131601829715) ">NBShare</text>
  <text transform="matrix(1.4297291040420532,0,0,1.3866170644760127,-232.83977777138358,-34.95352751761675) " xml:space="preserve" text-anchor="middle" font-family="Sans-serif" font-size="24" id="svg_4" y="104.07469" x="577.91476" stroke-linecap="null" stroke-linejoin="null" stroke-dasharray="null" stroke-width="0" fill="#000000">(Beta)</text>
 </g>
</svg>
